<?xml version="1.0" encoding="UTF-8" standalone="no"?>
<!DOCTYPE svg PUBLIC "-//W3C//DTD SVG 1.1//EN" "http://www.w3.org/Graphics/SVG/1.1/DTD/svg11.dtd">
<svg width="100%" height="100%" viewBox="0 0 480 480" version="1.1" xmlns="http://www.w3.org/2000/svg" xmlns:xlink="http://www.w3.org/1999/xlink" xml:space="preserve" xmlns:serif="http://www.serif.com/" style="fill-rule:evenodd;clip-rule:evenodd;stroke-linejoin:round;stroke-miterlimit:2;">
    <g transform="matrix(1.04205,0,0,1.04205,-184.615,-322.664)">
        <path d="M225.804,698.245L225.804,612.113L318.898,386.028L411.991,612.113L411.991,698.245L462.024,698.245L462.024,610.604L589.404,661.506L589.404,698.245L637.795,698.245L637.795,719.078L568.571,719.078L568.571,675.616L482.858,641.364L482.858,719.078L391.158,719.078L391.158,616.234L318.898,440.744L246.637,616.234L246.637,719.078L177.165,719.078L177.165,698.245L225.804,698.245ZM504.577,535.052L498.695,582.944L519.373,585.484L525.255,537.592L504.577,535.052ZM543.565,535.019L562.417,579.436L581.594,571.296L562.742,526.879L543.565,535.019ZM472.022,516.783L443.866,555.968L460.785,568.125L488.941,528.94L472.022,516.783ZM577.312,515.497L615.847,544.537L628.386,527.899L589.851,498.859L577.312,515.497ZM451.655,483.204L407.6,502.888L416.099,521.909L460.154,502.225L451.655,483.204ZM531.262,403.228C498.669,399.225 468.957,422.437 464.954,455.03C460.951,487.624 484.163,517.335 516.756,521.339C549.35,525.342 579.061,502.13 583.064,469.537C587.067,436.943 563.856,407.232 531.262,403.228ZM528.723,423.906C549.904,426.508 564.988,445.816 562.386,466.997C559.785,488.178 540.477,503.262 519.296,500.661C498.115,498.059 483.031,478.751 485.632,457.57C488.234,436.389 507.542,421.305 528.723,423.906ZM451.241,442.851L403.349,436.969L400.809,457.647L448.701,463.529L451.241,442.851ZM419.633,396.668L458.168,425.708L470.706,409.07L432.171,380.03L419.633,396.668Z" style="fill:rgb(255,204,0);"/>
    </g>
</svg>
